# xmcd
#
# Track frame offsets: 
#        150
#        11411
#        23068
#        33537
#        43844
#        58418
#        72385
#        84215
#        96837
#        109452
#        122805
#        136766
#        148576
#        162263
#        175184
#        189021
#        203467
#        216420
#        228046
#        239089
#        249508
#        263847
#        278861
#        292764
#        304716
#
# Disc length: 4246 seconds
#
# Revision: 1
# Processed by: cddbd v1.5.2PL0 Copyright (c) Steve Scherf et al.
# Submitted via: ExactAudioCopyFreeDBPlugin 1.0
#
DISCID=62109419
DTITLE=Freddie King - Taking Care of Business 1956-1973 [CD1]
DYEAR=2009
DGENRE=Blues
TTITLE0=Country Boy
TTITLE1=That's What You Think
TTITLE2=You Know That You Love Me (But You Never Tell Me So)
TTITLE3=See See Baby
TTITLE4=You've Got To Love Her With a Feeling
TTITLE5=Have You Ever Loved a Woman
TTITLE6=Hide Away
TTITLE7=I Love the Woman
TTITLE8=Lonesome Whistle Blues
TTITLE9=If You Believe (In What You Do)
TTITLE10=It's Too Bad (Things Are Going So Tough)
TTITLE11=I'm Tore Down
TTITLE12=Butterscotch (Onion Rings)
TTITLE13=Sen-Sa-Shun
TTITLE14=Side Tracked
TTITLE15=The Stumble
TTITLE16=San-Ho-Zay
TTITLE17=Wash Out
TTITLE18=You Know That You Love Me (But You Never Tell Me So) (alterna
TTITLE18=te take)
TTITLE19=See See Baby (alternate take)
TTITLE20=You've Got to Love Her With a Feeling (alternate take)
TTITLE21=Have You Ever Loved a Woman (alternate take)
TTITLE22=Butterscotch (Onion Rings) (alternate take 1)
TTITLE23=Butterscotch (Onion Rings) (alternate take 2)
TTITLE24=Wash Out (alternate take)
EXTD=
EXTT0=
EXTT1=
EXTT2=
EXTT3=
EXTT4=
EXTT5=
EXTT6=
EXTT7=
EXTT8=
EXTT9=
EXTT10=
EXTT11=
EXTT12=
EXTT13=
EXTT14=
EXTT15=
EXTT16=
EXTT17=
EXTT18=
EXTT19=
EXTT20=
EXTT21=
EXTT22=
EXTT23=
EXTT24=
PLAYORDER=
